<svg version="1.1" id="Layer_1" xmlns="http://www.w3.org/2000/svg" xmlns:xlink="http://www.w3.org/1999/xlink" x="0px" y="0px"
	 width="100%" viewBox="0 0 624 336" enable-background="new 0 0 624 336" xml:space="preserve">
<path fill="#000000" opacity="1.000000" stroke="none" 
	d="
M425.516724,161.368713 
	C409.501709,199.170975 381.525635,221.960281 341.249420,226.969910 
	C283.131470,234.198700 235.866776,193.115723 226.754715,141.464325 
	C218.090302,92.350471 248.243134,40.168930 299.636902,25.496910 
	C335.656738,15.213877 368.817963,22.365984 397.029541,47.298344 
	C430.106964,76.530922 440.471344,119.487320 425.516724,161.368713 
M295.266174,169.240738 
	C294.212189,167.536072 293.693817,165.803802 295.622620,164.390823 
	C299.143738,161.811295 298.148010,159.448898 295.325897,157.230377 
	C292.442627,154.963791 292.159058,152.503326 294.130981,149.435303 
	C295.565033,147.204117 296.427429,144.601303 297.892517,142.395187 
	C301.059906,137.625809 305.414948,134.313965 310.697876,131.974319 
	C311.947052,134.521088 311.010712,136.227356 310.689178,137.979401 
	C310.304352,140.076782 309.096771,142.096237 309.833313,144.311523 
	C311.419281,149.081619 313.638458,153.252014 312.981567,159.035751 
	C312.325653,164.810516 315.092041,171.050278 317.327576,176.814133 
	C317.941376,178.396744 318.041168,180.484940 320.790436,181.197815 
	C322.797668,174.420502 323.064484,167.476166 323.664429,160.633850 
	C324.277832,153.637558 323.297791,152.550385 316.819824,150.843521 
	C316.765778,144.928848 322.725220,143.421234 325.588959,139.520981 
	C322.781281,136.171722 319.250671,134.236084 316.079681,131.864639 
	C314.747681,130.868469 312.728027,129.814651 313.209076,128.114044 
	C314.234283,124.489464 311.931366,121.710632 311.465332,118.503326 
	C311.233734,116.909508 310.234985,115.345581 312.061676,113.321129 
	C316.924103,117.377449 322.858093,120.284767 329.001831,120.280510 
	C335.158630,120.276253 341.108643,117.391335 346.871094,112.566643 
	C346.881836,125.097946 342.384827,133.875336 331.198517,139.393524 
	C336.857269,143.479660 341.395416,146.650131 341.974884,153.235123 
	C350.472321,147.298981 347.327301,139.827728 346.119781,132.835861 
	C351.406921,133.329590 357.620636,138.339722 360.973022,144.012299 
	C364.371063,149.762146 366.990509,155.306732 359.936615,160.340012 
	C359.739502,160.480652 359.782501,160.957779 359.603210,161.790527 
	C365.019196,165.014023 363.100372,168.877701 360.385284,173.282089 
	C355.207001,181.682434 350.554504,190.404617 345.016602,198.597656 
	C351.262573,193.745209 364.684998,177.151154 368.523834,170.225632 
	C369.524719,168.419937 369.369904,167.135239 368.065582,165.778427 
	C365.668213,163.284576 366.296692,161.478394 369.224335,159.993393 
	C370.363220,159.415710 371.718262,158.923233 372.176483,157.292511 
	C371.117096,153.256287 367.586731,150.178864 366.760040,145.789047 
	C369.255066,144.814728 371.201874,146.112381 373.203217,146.635559 
	C390.118317,151.057266 390.128723,151.073166 394.252319,168.261765 
	C395.515167,173.525635 396.667328,178.816055 397.827057,183.905136 
	C399.336975,184.058517 399.885712,183.423737 400.497772,182.858353 
	C403.920624,179.696594 402.058685,175.895752 401.424927,172.502014 
	C399.806732,163.836655 396.515259,155.314728 396.097961,146.629501 
	C395.243164,128.838501 395.856232,110.978035 395.808838,93.146317 
	C395.799500,89.624229 397.247711,88.223450 400.756775,89.075874 
	C403.666565,89.782707 406.605652,90.368065 409.520599,91.054596 
	C411.686646,91.564751 413.896118,92.200623 413.929016,94.989388 
	C413.960999,97.696739 415.145691,100.842117 411.949554,102.659363 
	C408.578796,104.575874 408.466400,106.178436 411.838623,108.343559 
	C415.464569,110.671577 415.339294,119.756866 411.671265,122.025673 
	C408.716980,123.852997 409.136871,125.647942 411.342438,127.446709 
	C415.352448,130.717148 415.557281,137.596832 411.486389,141.174286 
	C409.896942,142.571045 409.090881,145.538376 410.117493,145.756775 
	C415.160431,146.829651 413.626953,151.479050 415.293457,154.499268 
	C427.685181,127.759491 421.434296,80.684097 386.896179,52.650513 
	C352.698364,24.893141 300.880707,25.674826 268.071533,54.824615 
	C234.317551,84.813843 230.056046,128.988052 243.805054,158.415039 
	C243.805054,156.845856 243.716995,155.684875 243.821869,154.541565 
	C244.116302,151.331451 242.554550,147.642303 247.627869,146.034454 
	C249.688766,145.381302 249.087799,142.538696 246.705185,140.959976 
	C242.354034,138.076920 242.549515,130.493118 246.899017,127.507065 
	C249.223679,125.911095 249.451263,124.136398 247.233612,122.313492 
	C242.466202,118.394661 242.304260,111.697395 247.013260,108.046402 
	C249.077423,106.446007 249.560226,104.437782 247.158920,103.371086 
	C242.595627,101.344009 243.809784,97.637405 244.107315,94.373062 
	C244.408417,91.069839 247.646866,91.400948 249.944473,90.784012 
	C252.193069,90.180252 254.515350,89.846031 256.755096,89.215324 
	C260.743988,88.092079 262.277893,89.557793 262.216949,93.629684 
	C262.104706,101.126450 262.543427,108.638733 262.239777,116.123756 
	C261.701447,129.393555 263.752197,142.796951 260.213898,155.922195 
	C258.393768,162.673721 257.095276,169.538086 255.800949,176.412888 
	C255.064835,180.322815 256.442780,182.574768 259.744049,185.003250 
	C261.805176,174.501541 264.016083,164.605194 267.560730,155.070526 
	C268.084717,153.661087 268.242157,151.846710 269.677002,151.246613 
	C276.371704,148.446732 283.364868,146.717911 290.868073,145.269272 
	C290.475433,150.639648 286.003571,153.508652 285.481720,158.329803 
	C289.762054,160.266830 293.558472,162.504593 288.694031,167.541306 
	C288.086578,168.170273 288.488770,169.165878 288.972168,169.874008 
	C295.778687,179.845108 302.316406,190.040741 312.044067,197.642563 
	C309.143860,193.229904 306.304901,188.807907 303.745880,184.212128 
	C301.072449,179.410889 298.340881,174.642044 295.266174,169.240738 
M341.721954,171.165344 
	C342.558807,167.962906 343.357941,164.750000 344.243744,161.561172 
	C345.031921,158.723877 344.443665,156.316605 341.374451,155.786545 
	C338.515137,155.292694 335.095947,155.875931 334.687073,159.336777 
	C333.900696,165.992386 335.025513,172.538345 337.191956,179.803848 
	C338.395660,178.373062 338.928375,177.950409 339.182404,177.399307 
	C340.014008,175.595215 340.744202,173.744339 341.721954,171.165344 
z"/>
<path fill="#000000" opacity="1.000000" stroke="none" 
	d="
M346.131287,299.398285 
	C336.137054,299.404846 336.124146,299.404907 336.089935,289.853699 
	C336.064331,282.717529 336.124451,275.580750 336.052368,268.445221 
	C336.019562,265.194916 337.185913,263.459625 340.717834,263.651581 
	C344.027771,263.831421 347.364532,263.560455 350.669220,263.785645 
	C361.609344,264.531128 364.744354,270.092834 359.655701,279.997894 
	C359.908569,280.412903 360.171875,281.006866 360.575012,281.482269 
	C366.496735,288.465942 364.249146,296.112549 355.493866,298.767395 
	C352.568756,299.654358 349.569397,299.322327 346.131287,299.398285 
M345.819794,290.774017 
	C346.779022,291.986542 348.154541,291.874481 349.465179,291.868225 
	C351.534058,291.858337 353.502960,291.499817 354.418823,289.317810 
	C354.900787,288.169495 354.699371,286.999237 353.692596,286.155548 
	C351.937775,284.684998 349.921326,284.073364 347.677063,284.740814 
	C344.788086,285.600037 345.364807,287.939362 345.819794,290.774017 
M348.152191,276.996246 
	C350.166565,276.910065 352.359344,276.993988 352.617523,274.223358 
	C352.765472,272.635529 351.624359,271.793701 350.235413,271.491791 
	C348.631622,271.143188 346.696777,270.637939 345.842224,272.565857 
	C345.084259,274.275879 344.951202,276.213196 348.152191,276.996246 
z"/>
<path fill="#000000" opacity="1.000000" stroke="none" 
	d="
M606.049866,297.164795 
	C604.516663,294.336487 603.203979,291.834717 601.852478,289.354095 
	C601.276794,288.297516 600.519714,287.340759 599.140381,287.609863 
	C597.709656,287.888977 597.502747,289.113129 597.431396,290.304535 
	C597.351929,291.630890 597.317261,292.962891 597.335388,294.291473 
	C597.373596,297.098541 597.417725,299.663025 593.343201,299.599487 
	C589.691101,299.542542 587.834045,298.401611 587.913025,294.396881 
	C588.083496,285.757446 588.021484,277.111542 587.926392,268.469666 
	C587.889832,265.147125 589.144470,263.566010 592.607056,263.637695 
	C596.914429,263.726837 601.223206,263.192993 605.528320,263.974640 
	C614.792358,265.656647 618.855591,275.104279 612.891479,282.399506 
	C610.230774,285.654022 610.866760,287.763519 612.625427,290.676941 
	C614.124573,293.160553 616.029114,295.524841 616.604370,298.987366 
	C612.728088,299.560944 609.247131,300.671875 606.049866,297.164795 
M602.884644,279.039978 
	C605.779724,278.276337 606.494873,276.252655 605.522400,273.738678 
	C604.585510,271.316498 602.303711,271.195496 600.089294,271.430298 
	C597.311890,271.724823 597.417542,273.846802 597.403809,275.864014 
	C597.380615,279.287445 599.731628,279.295624 602.884644,279.039978 
z"/>
<path fill="#000000" opacity="1.000000" stroke="none" 
	d="
M502.401306,263.803894 
	C505.351318,263.736450 507.846954,263.628967 510.336853,263.706390 
	C521.979919,264.068329 528.168274,270.462006 528.062927,281.951691 
	C527.962585,292.889587 521.394897,299.343903 510.033722,299.358765 
	C498.583893,299.373749 499.024994,300.935547 499.038971,288.343323 
	C499.046173,281.860748 499.042786,275.378021 499.088135,268.895691 
	C499.103363,266.720337 499.034821,264.421082 502.401306,263.803894 
M515.896851,273.667480 
	C510.083069,270.168427 509.076599,270.660461 508.961487,277.126373 
	C508.908264,280.116577 508.807861,283.116241 508.984436,286.096497 
	C509.093597,287.938812 508.139374,290.723175 510.663971,291.257416 
	C513.448425,291.846588 515.923889,290.221161 517.079590,287.544769 
	C519.018005,283.055603 519.097229,278.528473 515.896851,273.667480 
z"/>
<path fill="#000000" opacity="1.000000" stroke="none" 
	d="
M147.267120,300.164581 
	C139.710785,298.973053 134.835281,294.894073 133.337036,287.927826 
	C131.735138,280.479614 131.717728,272.972382 137.988266,267.102509 
	C143.438324,262.000702 152.931580,261.581085 158.677887,266.155060 
	C164.565460,270.841461 166.871170,280.653534 164.052887,289.028381 
	C161.577393,296.384613 156.332779,299.963684 147.267120,300.164581 
M143.594269,288.645660 
	C148.204773,293.481689 152.602142,292.703369 154.845642,286.624695 
	C156.160278,283.062744 156.150894,279.470551 154.814758,275.912811 
	C153.709686,272.970428 151.616547,271.268158 148.403702,271.334076 
	C145.254089,271.398712 143.591461,273.551117 142.796967,276.207214 
	C141.630035,280.108398 141.758820,284.073425 143.594269,288.645660 
z"/>
<path fill="#000000" opacity="1.000000" stroke="none" 
	d="
M113.832314,292.251862 
	C114.754761,294.525482 116.604301,296.065430 116.330948,298.415833 
	C110.395653,300.729584 107.884804,299.800079 104.919022,294.786438 
	C103.399261,292.217194 102.911362,288.746643 99.410942,287.414703 
	C97.117371,289.750153 98.122444,292.574402 97.964737,295.068359 
	C97.741127,298.604431 95.899467,299.460846 92.726067,299.435028 
	C89.442398,299.408264 88.479568,298.038544 88.536163,294.856781 
	C88.695770,285.883362 88.606880,276.904083 88.502068,267.928436 
	C88.475433,265.647888 88.803169,263.832062 91.511971,263.798615 
	C96.818726,263.733093 102.171516,263.119476 107.405212,264.429596 
	C115.065483,266.347076 118.891167,275.941071 113.581818,281.708496 
	C109.736496,285.885620 111.283318,288.559723 113.832314,292.251862 
M98.129189,277.020538 
	C98.815231,280.791046 101.385315,279.508087 103.516006,278.901672 
	C105.683914,278.284637 106.935455,276.730896 106.321121,274.391815 
	C105.655647,271.858063 103.549316,271.346222 101.245972,271.323395 
	C97.597931,271.287292 98.115646,273.936096 98.129189,277.020538 
z"/>
<path fill="#000000" opacity="1.000000" stroke="none" 
	d="
M400.935303,275.019836 
	C400.941864,272.533234 401.050690,270.531921 400.926453,268.545227 
	C400.720184,265.245270 401.931335,263.640259 405.470917,263.648254 
	C408.876648,263.655914 410.291565,264.993683 410.209137,268.398682 
	C410.072449,274.047211 410.407898,279.716187 410.076324,285.349030 
	C409.413666,296.607025 401.369965,302.430756 391.017212,299.546204 
	C385.943634,298.132568 383.324829,294.584320 382.076233,289.783905 
	C380.117767,282.254578 381.113525,274.567200 381.057800,266.945801 
	C381.033386,263.606049 383.703918,263.713165 386.109375,263.694702 
	C388.603302,263.675537 390.310852,264.378326 390.279022,267.324463 
	C390.226898,272.144257 390.233887,276.966644 390.338562,281.785309 
	C390.381500,283.761200 390.605988,285.757690 390.994110,287.695526 
	C391.508453,290.263611 393.095764,291.861847 395.863098,291.750366 
	C398.855011,291.629852 400.444458,289.751556 400.646484,286.968811 
	C400.922760,283.162903 400.853851,279.331940 400.935303,275.019836 
z"/>
<path fill="#000000" opacity="1.000000" stroke="none" 
	d="
M545.943481,279.005829 
	C545.958923,274.841431 545.975769,271.175598 545.993530,267.509766 
	C546.005127,265.104950 547.132935,263.740601 549.614563,263.726776 
	C554.943237,263.697113 560.272095,263.688507 565.600830,263.686981 
	C568.390869,263.686157 569.313965,265.222107 569.290222,267.860779 
	C569.267578,270.367584 568.309937,271.578094 565.735657,271.479309 
	C563.580139,271.396545 561.419067,271.467041 559.260925,271.436371 
	C557.244080,271.407745 555.495422,271.747833 555.504333,274.294586 
	C555.512390,276.594452 557.158936,276.896576 558.950806,276.929504 
	C560.449646,276.957062 561.951233,276.919128 563.447144,276.996887 
	C565.731079,277.115509 567.184265,278.063416 567.251831,280.640198 
	C567.319458,283.219147 566.408752,284.841522 563.678406,285.034851 
	C562.350403,285.128876 561.016235,285.149506 559.684326,285.171204 
	C557.574097,285.205597 555.500549,285.346191 555.483032,288.189911 
	C555.462830,291.464233 557.945923,291.209564 560.097595,291.260956 
	C562.090637,291.308533 564.092712,291.121368 566.080017,291.232147 
	C568.693909,291.377808 569.909851,292.937164 569.917236,295.516205 
	C569.924744,298.145355 568.813599,299.518555 566.002502,299.462646 
	C560.515747,299.353485 555.026123,299.383209 549.537720,299.357239 
	C546.587891,299.343292 545.994934,297.411072 545.987976,295.001587 
	C545.973022,289.835846 545.959412,284.670135 545.943481,279.005829 
z"/>
<path fill="#000000" opacity="1.000000" stroke="none" 
	d="
M315.073425,281.860229 
	C313.857941,286.224426 310.521210,284.852966 307.922821,285.080475 
	C305.521393,285.290710 303.116974,285.066071 303.270691,288.635376 
	C303.416077,292.011108 305.888367,291.487427 307.953979,291.601532 
	C309.610901,291.693085 311.281952,291.657379 312.940369,291.564575 
	C315.694305,291.410431 317.354767,292.188202 317.384430,295.398132 
	C317.412598,298.446991 316.185913,299.528778 313.212646,299.441925 
	C308.395355,299.301178 303.567291,299.318176 298.749817,299.465668 
	C295.386047,299.568665 293.904480,298.255554 293.941986,294.809509 
	C294.037964,285.997040 293.998383,277.182312 293.925964,268.369202 
	C293.901276,265.365662 294.891266,263.629700 298.208038,263.689240 
	C303.194977,263.778778 308.184998,263.747772 313.173096,263.703491 
	C316.226318,263.676392 317.212952,265.282104 317.154968,268.113861 
	C317.093781,271.099976 315.411682,271.724030 312.884583,271.524750 
	C311.394958,271.407257 309.890198,271.354065 308.398712,271.419250 
	C306.347504,271.508942 303.636597,270.812195 303.459412,274.071014 
	C303.272308,277.512299 306.070038,276.768433 308.096375,276.941498 
	C309.088104,277.026245 310.090424,276.985626 311.087860,277.005829 
	C313.988098,277.064575 315.343750,278.529694 315.073425,281.860229 
z"/>
<path fill="#000000" opacity="1.000000" stroke="none" 
	d="
M66.583054,284.784912 
	C63.966938,286.434845 61.528172,287.545319 58.766724,287.394196 
	C54.406151,287.155548 52.735935,289.179932 53.133263,293.420532 
	C53.461452,296.923248 52.916927,299.692688 48.201973,299.462128 
	C44.996872,299.305328 43.739315,298.096100 43.766590,294.945953 
	C43.844437,285.954529 43.825603,276.961670 43.758141,267.970032 
	C43.736317,265.061279 44.928688,263.614594 47.897858,263.687866 
	C51.723213,263.782288 55.567276,263.614624 59.371704,263.934906 
	C64.068680,264.330322 68.197502,265.983856 70.004066,270.889130 
	C71.917389,276.084351 71.013130,280.701782 66.583054,284.784912 
M61.445663,274.067078 
	C60.038193,271.431763 57.659805,271.107330 55.060738,271.472931 
	C53.650589,271.671265 53.168201,272.810669 53.247520,274.033813 
	C53.394115,276.294189 52.085537,279.451752 55.973705,279.809235 
	C59.454544,280.129211 61.820244,278.810272 61.445663,274.067078 
z"/>
<path fill="#000000" opacity="1.000000" stroke="none" 
	d="
M195.974472,263.721313 
	C198.783371,263.745728 201.109314,263.730713 203.432190,263.808044 
	C205.652359,263.881958 206.763458,265.147247 206.748123,267.320984 
	C206.732544,269.528809 206.046448,271.283386 203.401581,271.334625 
	C201.575378,271.370056 199.748169,271.357880 197.922134,271.399048 
	C193.055389,271.508759 192.932693,271.666687 193.285828,277.204315 
	C195.515259,278.702271 198.092194,277.759216 200.501846,278.032471 
	C203.065506,278.323181 204.388321,279.437958 204.374939,282.164368 
	C204.361710,284.859100 203.186325,285.965118 200.511932,286.212463 
	C193.365784,286.873383 193.254395,286.954315 192.937439,294.445831 
	C192.778366,298.206024 191.331512,299.861206 187.441391,299.612305 
	C183.451004,299.356934 183.176437,297.044739 183.275208,293.823334 
	C183.524445,285.693481 183.758804,277.545227 183.464249,269.423798 
	C183.305420,265.045319 184.616043,263.235901 189.016129,263.662140 
	C191.156006,263.869446 193.331055,263.713684 195.974472,263.721313 
z"/>
<path fill="#000000" opacity="1.000000" stroke="none" 
	d="
M458.873840,288.956970 
	C458.876648,281.981995 458.979309,275.497040 458.841034,269.017273 
	C458.769623,265.671661 459.494659,263.643311 463.446503,263.639435 
	C467.222687,263.635712 468.373901,265.290649 468.252136,268.814026 
	C468.080017,273.794525 468.222900,278.785919 468.232330,283.772675 
	C468.245911,290.969208 468.246674,290.956970 475.249146,291.124115 
	C476.572388,291.155701 477.912140,291.219696 479.209351,291.458527 
	C481.453888,291.871735 482.051971,293.537628 481.932861,295.553925 
	C481.815430,297.541565 481.162292,299.259369 478.799927,299.285248 
	C473.150452,299.347198 467.499268,299.344910 461.849884,299.277863 
	C459.766998,299.253143 459.008087,297.784302 458.941589,295.929871 
	C458.864166,293.771606 458.891815,291.609558 458.873840,288.956970 
z"/>
<path fill="#000000" opacity="1.000000" stroke="none" 
	d="
M263.006653,272.135986 
	C263.015350,276.618988 263.003448,280.618927 263.037018,284.618439 
	C263.091583,291.117004 263.605194,291.636444 270.322845,291.339478 
	C273.667450,291.191589 276.454773,291.422028 276.212463,295.882965 
	C276.092316,298.094330 275.152740,299.321930 272.877197,299.331879 
	C267.713318,299.354462 262.549347,299.350311 257.385529,299.379364 
	C254.925003,299.393219 253.714188,298.247589 253.710754,295.746216 
	C253.697723,286.246918 253.677475,276.747437 253.594162,267.248566 
	C253.571060,264.613403 254.930283,263.691895 257.325134,263.747437 
	C259.647614,263.801361 262.268158,263.427917 262.789520,266.669312 
	C263.051819,268.299866 262.945892,269.989655 263.006653,272.135986 
z"/>
<path fill="#000000" opacity="1.000000" stroke="none" 
	d="
M233.359314,280.019348 
	C233.343140,285.502289 233.277740,290.489655 233.327179,295.475861 
	C233.358185,298.603760 231.629959,299.359802 228.875641,299.401031 
	C225.981186,299.444427 223.950455,298.844177 223.962921,295.408264 
	C223.996704,286.099426 223.988068,276.790466 223.986496,267.481537 
	C223.985809,263.439148 226.829498,263.772125 229.565887,263.722870 
	C232.640823,263.667572 233.604614,265.124023 233.448380,268.056152 
	C233.245209,271.869293 233.373169,275.700104 233.359314,280.019348 
z"/>
<path fill="#000000" opacity="1.000000" stroke="none" 
	d="
M439.143616,274.067078 
	C439.137421,281.040466 439.079346,287.523071 439.145813,294.004425 
	C439.178833,297.221771 438.585236,299.384277 434.564819,299.469360 
	C430.228210,299.561127 429.707611,297.227356 429.745209,293.807037 
	C429.836517,285.497681 429.868591,277.184875 429.722809,268.877014 
	C429.662140,265.417908 430.613373,263.600677 434.465668,263.654175 
	C438.361725,263.708282 439.288757,265.789398 439.149261,269.088654 
	C439.086121,270.581787 439.141541,272.079926 439.143616,274.067078 
z"/>
<path fill="#000000" opacity="1.000000" stroke="none" 
	d="
M300.473877,100.324371 
	C298.173340,95.020576 296.528290,90.947083 301.510803,85.633720 
	C304.213013,82.752068 301.728363,76.058838 299.025879,71.776451 
	C296.668518,68.040977 294.854584,64.204857 294.182434,59.852001 
	C293.876923,57.873253 293.592529,55.852989 295.711517,54.472633 
	C298.330048,54.559158 299.560394,57.740856 302.812653,57.428135 
	C302.354584,53.310863 305.266876,53.061100 308.428131,52.606834 
	C316.969543,51.379440 325.041779,47.707340 333.846802,47.736374 
	C344.430756,47.771275 350.703308,53.027966 352.248291,63.400978 
	C352.452911,64.774742 352.868988,65.923164 353.722626,67.015541 
	C356.784393,70.933464 357.751526,75.244698 356.404572,80.149155 
	C355.569244,83.190735 355.281250,85.937653 358.540985,88.491058 
	C361.538483,90.839058 359.430206,100.032455 355.544189,102.677803 
	C352.687531,104.622421 349.417694,105.914009 345.020355,105.118202 
	C346.579376,99.491402 345.252777,94.212059 343.968018,88.913376 
	C342.313232,82.088837 340.763092,81.017883 334.098999,82.428436 
	C331.001465,83.084076 328.418793,83.377106 325.256134,81.223434 
	C321.880707,78.924873 316.919739,79.232521 313.226624,80.797760 
	C309.989349,82.169800 310.255280,86.357124 310.206024,89.728081 
	C310.133423,94.692833 312.150299,99.556946 310.851685,105.051437 
	C306.657410,105.420128 303.246796,104.113045 300.473877,100.324371 
z"/>
<path fill="#000000" opacity="1.000000" stroke="none" 
	d="
M390.467407,144.177094 
	C382.565521,144.746994 375.705170,141.682236 368.691101,139.321274 
	C366.750092,138.667923 366.862030,136.723602 366.856873,135.053009 
	C366.829590,126.220352 366.667114,117.384026 366.867462,108.556137 
	C367.014618,102.071434 371.359894,96.808273 377.600128,94.790947 
	C378.868042,94.381050 380.164398,94.040474 381.396301,93.541229 
	C385.241974,91.982735 386.892426,91.499695 388.668976,97.163773 
	C393.554932,112.741478 390.218201,128.295029 390.467407,144.177094 
M377.502289,127.653427 
	C377.016174,125.638527 375.953247,124.534492 374.090546,126.174561 
	C373.023407,127.114136 372.988068,128.786148 374.089691,129.731262 
	C375.839417,131.232422 377.089661,130.536011 377.502289,127.653427 
z"/>
<path fill="#000000" opacity="1.000000" stroke="none" 
	d="
M291.253662,123.993828 
	C291.282318,139.485535 291.282318,139.485550 276.160614,143.355942 
	C266.858612,145.736801 266.852234,145.736786 266.846466,136.275467 
	C266.841064,127.451927 267.493591,118.565147 266.633575,109.826576 
	C266.039581,103.791199 269.797974,99.274239 270.161896,93.760040 
	C270.251373,92.404549 271.549774,91.941216 272.854462,92.369049 
	C277.437225,93.871788 282.021240,95.375885 286.554474,97.018318 
	C287.192688,97.249542 287.760834,98.182053 288.006348,98.909744 
	C290.148529,105.258385 292.352905,111.595200 291.296997,118.506409 
	C291.048370,120.133736 291.254608,121.830559 291.253662,123.993828 
M283.322418,125.480270 
	C280.513519,125.774727 281.079254,127.716698 281.504333,129.432877 
	C281.718475,130.297470 282.684387,130.747665 283.435944,130.290100 
	C285.439484,129.070282 285.005890,127.411987 283.322418,125.480270 
M283.905060,115.913536 
	C284.963745,114.403244 285.337524,112.873444 283.547363,111.694153 
	C282.774078,111.184776 281.814453,111.623749 281.550323,112.495911 
	C281.043976,114.167839 280.871368,115.846237 283.905060,115.913536 
z"/>
</svg>